<?xml version="1.0" standalone="no"?>
<!DOCTYPE svg PUBLIC "-//W3C//DTD SVG 20010904//EN"
 "http://www.w3.org/TR/2001/REC-SVG-20010904/DTD/svg10.dtd">
<svg version="1.0" xmlns="http://www.w3.org/2000/svg"
 width="1920.000000pt" height="1080.000000pt" viewBox="0 0 1920.000000 1080.000000"
 preserveAspectRatio="xMidYMid meet">

<g transform="translate(0.000000,1080.000000) scale(0.100000,-0.100000)"
fill="#000000" stroke="none">
<path d="M5162 8890 c-72 -52 -85 -63 -158 -135 -172 -171 -255 -366 -253
-595 1 -58 4 -116 9 -130 l7 -25 6 25 c3 14 8 81 11 150 4 96 11 144 30 206
45 141 150 276 311 397 44 33 73 58 65 55 -8 -4 -23 -9 -34 -14 -17 -6 -17 -5
-5 17 7 13 13 27 14 30 0 4 11 16 25 28 38 31 19 25 -28 -9z"/>
<path d="M4065 8703 c-3 -27 -10 -58 -15 -70 -13 -30 4 -30 35 1 23 23 24 23
29 3 2 -11 -4 -44 -15 -73 -29 -76 -22 -96 16 -45 17 22 33 41 36 41 13 0 31
-91 25 -124 -8 -44 -26 -57 -26 -19 l-1 28 -16 -30 c-9 -16 -29 -45 -44 -63
-16 -18 -31 -45 -34 -60 -3 -15 -12 -46 -20 -69 -14 -43 -10 -54 13 -31 10 10
15 10 21 -1 7 -11 13 -7 25 15 17 33 21 19 6 -21 -16 -42 11 -26 35 20 12 22
44 84 73 137 40 74 51 103 46 122 -7 30 -21 34 -26 9 -3 -10 -8 16 -12 57 -10
101 -16 130 -27 130 -19 0 -79 55 -79 73 0 10 -8 17 -19 17 -16 0 -21 -9 -26
-47z"/>
<path d="M8223 8724 c15 -8 27 -19 27 -25 0 -5 12 -21 28 -34 34 -29 24 -42
-17 -21 -16 9 -39 16 -51 16 -20 0 -20 -1 6 -35 31 -41 28 -50 -11 -35 -37 14
-42 7 -9 -14 41 -27 104 -87 104 -99 0 -7 -4 -7 -12 1 -7 7 -18 12 -25 12 -10
0 -8 -8 6 -27 20 -27 55 -152 46 -162 -3 -2 -16 6 -30 19 l-24 23 2 -44 c1
-24 -2 -64 -7 -88 -8 -41 -7 -43 13 -36 26 8 25 11 1 -60 -14 -40 -17 -62 -10
-69 7 -7 14 0 22 22 18 46 31 39 26 -12 -4 -33 -2 -43 7 -40 7 3 16 -5 19 -18
5 -14 9 -18 13 -10 6 16 23 15 23 -2 0 -7 10 -16 21 -19 18 -5 20 -11 14 -34
-12 -50 -27 -58 -42 -22 -21 49 -24 30 -11 -56 7 -43 14 -73 16 -66 3 8 9 6
18 -6 14 -16 14 -14 9 22 -7 53 9 81 24 42 6 -16 11 -40 11 -55 0 -19 3 -23 9
-14 11 18 21 -7 21 -54 0 -31 -18 -50 -22 -21 0 6 -4 -15 -8 -48 -4 -33 -10
-80 -15 -105 -7 -42 -6 -44 9 -25 l15 20 1 -20 1 -20 11 20 c7 11 18 40 24 65
12 42 13 43 13 13 1 -18 5 -33 10 -33 4 0 13 15 19 33 7 24 10 27 11 10 1 -12
-8 -43 -19 -69 -12 -26 -18 -54 -15 -62 3 -8 0 -21 -7 -29 -7 -8 -13 -20 -15
-27 -1 -6 -5 -22 -9 -35 -6 -21 -5 -22 14 -12 44 23 43 9 -2 -39 -44 -47 -62
-76 -31 -50 12 10 15 10 15 -3 0 -9 -4 -19 -10 -22 -5 -3 -15 -16 -22 -28 -11
-21 -10 -21 7 -7 17 14 18 13 11 -10 -5 -14 -9 -35 -10 -46 -1 -12 -17 -40
-35 -63 -21 -26 -28 -41 -19 -41 8 0 19 5 26 12 25 25 24 -4 -1 -30 -35 -36
-34 -45 3 -37 17 4 30 4 30 0 0 -18 -32 -64 -55 -79 -14 -9 -23 -21 -20 -26 3
-4 -7 -22 -21 -39 -30 -36 -19 -39 36 -11 51 26 53 25 35 -10 -9 -16 -23 -30
-33 -30 -10 0 -23 -5 -29 -11 -7 -7 -35 -20 -64 -30 -28 -10 -57 -26 -64 -36
-12 -16 -10 -19 28 -26 26 -4 53 -3 70 4 18 8 32 8 38 2 14 -14 3 -35 -34 -61
l-32 -24 45 7 c25 4 47 11 48 16 2 5 12 9 23 9 21 0 26 -33 10 -59 -9 -14 6
-61 19 -61 4 0 11 -32 14 -71 4 -39 10 -68 13 -65 3 3 9 39 13 81 8 84 16 100
33 70 10 -18 12 -15 18 25 4 25 2 81 -3 125 -10 77 -9 84 25 195 56 184 65
235 76 448 4 88 12 147 19 154 16 16 15 61 0 76 -8 8 -15 57 -19 130 -4 64
-14 153 -23 197 -41 192 -46 223 -46 273 0 42 -4 57 -20 70 -28 23 -40 75 -48
212 l-7 115 -28 -3 c-30 -4 -67 21 -67 45 0 7 -16 31 -36 53 -36 39 -83 60
-134 60 l-25 -1 28 -15z"/>
<path d="M10750 6869 l0 -701 288 4 c323 5 348 9 492 80 68 33 102 59 176 132
131 131 182 232 205 402 20 155 -17 320 -102 451 -49 75 -165 186 -241 231
-138 82 -254 102 -584 102 l-234 0 0 -701z m630 532 c94 -33 169 -82 239 -157
109 -116 157 -248 148 -404 -14 -249 -184 -452 -432 -515 -42 -11 -112 -15
-247 -15 l-188 0 0 561 0 561 208 -4 c182 -4 215 -7 272 -27z"/>
<path d="M8090 7520 c0 -5 -19 -20 -42 -32 -48 -25 -149 -29 -202 -9 -33 13
-33 13 8 -84 21 -50 26 -76 26 -153 0 -80 -4 -101 -26 -149 -43 -91 -121 -159
-254 -224 -63 -31 -135 -64 -160 -73 -25 -10 -63 -30 -85 -47 -22 -16 -66 -46
-97 -66 -31 -21 -55 -43 -53 -49 2 -6 -14 -17 -36 -24 -58 -19 -30 -30 76 -29
59 0 99 5 115 14 30 17 44 19 35 5 -7 -11 27 -6 74 12 22 8 23 7 10 -8 -13
-16 -12 -17 9 -12 26 7 28 1 5 -24 -9 -10 -11 -18 -5 -18 6 0 14 5 17 10 11
17 28 11 20 -7 -4 -10 -10 -24 -13 -32 -3 -9 -1 -12 6 -7 7 4 12 -6 14 -26 l3
-33 53 53 c29 29 57 50 62 47 5 -3 12 0 16 6 4 8 3 9 -4 5 -15 -9 -15 -3 0 29
8 18 14 22 19 13 6 -9 15 -6 36 14 l28 27 -3 -40 c-7 -67 14 -69 33 -2 22 78
23 82 24 56 1 -34 21 -39 21 -5 0 16 3 32 8 36 4 4 12 24 19 44 12 36 12 36 7
5 -6 -37 11 -45 22 -11 4 13 22 44 40 70 18 26 35 61 39 78 4 16 10 30 15 30
17 0 100 79 90 85 -6 3 -14 3 -20 0 -14 -9 0 26 20 50 10 11 20 31 23 45 3 14
10 41 15 60 l8 35 7 -54 c3 -29 8 -56 11 -58 13 -14 26 14 26 57 0 27 5 60 12
74 9 22 14 24 26 13 14 -10 15 -9 8 8 -43 103 -46 114 -31 109 20 -8 19 3 -5
33 -11 14 -17 29 -14 34 3 5 -4 21 -15 35 -12 15 -21 41 -21 60 0 19 -4 34
-10 34 -5 0 -10 -4 -10 -10z m-29 -437 c-9 -16 -10 -16 -11 -1 0 9 3 25 7 35
7 16 8 17 11 1 2 -10 -1 -25 -7 -35z"/>
<path d="M7550 7425 c-8 -9 -15 -51 -18 -95 -5 -85 15 -307 28 -315 9 -5 50
42 50 56 0 5 -7 9 -15 9 -8 0 -15 6 -15 13 -1 52 -13 343 -15 345 -1 1 -8 -5
-15 -13z"/>
<path d="M12510 7139 c-123 -24 -267 -133 -329 -249 -144 -271 -15 -614 267
-711 357 -123 715 193 639 564 -22 109 -55 173 -127 250 -118 126 -281 179
-450 146z m234 -148 c69 -30 149 -111 182 -184 25 -54 29 -74 29 -157 0 -83
-4 -103 -29 -157 -35 -78 -121 -162 -191 -189 -36 -13 -75 -19 -135 -19 -72 0
-93 4 -136 27 -69 36 -136 106 -171 176 -25 51 -28 67 -28 162 0 94 3 111 27
161 47 94 126 163 223 196 55 18 171 10 229 -16z"/>
<path d="M13640 7139 c-153 -30 -299 -174 -342 -338 -97 -374 240 -710 584
-581 36 13 79 41 114 73 l57 52 -5 -106 c-5 -126 -32 -194 -102 -263 -73 -70
-125 -91 -226 -91 -108 1 -175 26 -254 96 l-57 52 -40 -39 c-21 -21 -39 -43
-39 -50 0 -14 73 -83 126 -118 22 -14 66 -35 98 -46 255 -87 513 35 609 289
21 54 22 75 25 559 l3 502 -70 0 -71 0 0 -68 0 -69 -45 44 c-97 92 -227 129
-365 102z m213 -147 c62 -27 133 -100 165 -170 23 -49 27 -70 27 -152 0 -82
-4 -103 -26 -151 -92 -196 -318 -261 -468 -133 -93 80 -137 185 -129 309 15
236 231 385 431 297z"/>
<path d="M14810 7139 c-74 -14 -168 -67 -229 -128 -198 -198 -200 -518 -4
-717 184 -187 466 -189 676 -4 26 23 47 47 47 54 0 6 -18 29 -40 51 l-39 38
-48 -44 c-27 -25 -75 -58 -108 -74 -53 -26 -71 -30 -150 -30 -76 0 -98 4 -145
26 -98 46 -180 151 -196 248 l-7 41 391 0 390 0 6 44 c10 62 -10 171 -44 244
-35 75 -121 168 -190 206 -86 47 -209 65 -310 45z m227 -152 c85 -44 158 -139
178 -234 l7 -33 -327 0 -327 0 7 33 c26 116 133 227 250 258 54 15 159 2 212
-24z"/>
<path d="M3490 7044 c-102 -55 -170 -108 -170 -134 0 -33 239 -205 258 -185 4
3 -3 14 -15 23 -63 48 -162 138 -162 149 -1 16 104 129 153 165 56 41 33 34
-64 -18z"/>
<path d="M5175 6620 c19 -8 73 -14 64 -6 -2 2 -22 6 -44 9 -28 5 -34 4 -20 -3z"/>
<path d="M5268 6603 c12 -2 32 -2 45 0 12 2 2 4 -23 4 -25 0 -35 -2 -22 -4z"/>
<path d="M5340 6596 c0 -2 11 -6 25 -8 13 -3 22 -1 19 3 -5 9 -44 13 -44 5z"/>
<path d="M5480 6584 c0 -10 15 -14 55 -14 34 0 55 4 55 11 0 6 -6 9 -13 6 -7
-3 -32 -2 -55 3 -33 6 -42 4 -42 -6z"/>
<path d="M3551 6407 c-13 -21 -12 -21 5 -5 10 10 16 20 13 22 -3 3 -11 -5 -18
-17z"/>
<path d="M3347 6336 c-49 -18 -73 -40 -105 -96 -15 -25 -41 -67 -59 -95 -33
-50 -41 -71 -23 -60 5 3 19 1 31 -6 19 -10 28 -4 88 55 78 77 105 86 57 19
-97 -136 -83 -331 33 -453 22 -24 39 -45 37 -47 -9 -9 -127 27 -159 49 -90 58
-124 202 -73 303 l25 48 -54 -53 c-64 -63 -80 -102 -71 -172 13 -92 42 -151
105 -212 33 -31 72 -61 87 -67 63 -23 220 23 311 91 80 61 187 233 220 354 16
62 16 65 -3 91 -10 15 -39 60 -64 100 -53 86 -87 116 -155 140 -68 24 -180 29
-228 11z m113 -211 c16 -19 6 -32 -37 -50 -44 -19 -43 -19 -43 5 0 50 52 79
80 45z m216 -52 c6 -22 2 -31 -22 -50 -48 -38 -60 -30 -54 37 3 35 7 40 40 40
24 0 31 -5 36 -27z"/>
<path d="M3932 6310 c0 -19 2 -27 5 -17 2 9 2 25 0 35 -3 9 -5 1 -5 -18z"/>
<path d="M3921 6234 c0 -11 3 -14 6 -6 3 7 2 16 -1 19 -3 4 -6 -2 -5 -13z"/>
<path d="M4531 6194 c0 -11 3 -14 6 -6 3 7 2 16 -1 19 -3 4 -6 -2 -5 -13z"/>
<path d="M3874 6034 c-18 -14 -18 -15 4 -4 12 6 22 13 22 15 0 8 -5 6 -26 -11z"/>
<path d="M5538 5936 c-71 -29 -123 -60 -219 -128 -41 -30 -104 -72 -140 -93
-184 -111 -261 -164 -254 -175 3 -5 -2 -21 -11 -35 -16 -24 -15 -27 10 -64 15
-21 45 -53 66 -70 22 -18 50 -53 63 -79 27 -58 40 -64 231 -112 244 -61 332
-73 439 -60 143 17 170 35 449 296 52 49 65 94 41 139 -27 52 -288 313 -320
321 -15 4 -64 24 -109 46 -99 46 -159 50 -246 14z m70 -176 c18 -16 36 -30 42
-30 18 0 31 -39 20 -59 -16 -31 -46 -35 -85 -11 -20 12 -41 20 -48 17 -27 -10
-60 -92 -65 -164 -5 -82 10 -142 58 -223 17 -28 30 -52 30 -54 0 -4 -122 3
-166 10 -24 3 -42 18 -71 57 -78 102 -87 142 -56 233 22 67 51 109 120 176 65
64 89 76 149 77 32 1 48 -5 72 -29z m416 -362 c-27 -29 -65 -66 -84 -82 -19
-16 1 7 45 52 89 91 115 111 39 30z m-267 -200 c-24 -15 -134 -18 -187 -5 -54
13 -54 13 72 12 69 0 121 -3 115 -7z"/>
<path d="M10750 5050 l0 -700 490 0 490 0 0 70 0 70 -415 0 -415 0 0 260 0
260 325 0 325 0 0 70 0 70 -325 0 -325 0 0 230 0 230 405 0 405 0 0 70 0 70
-480 0 -480 0 0 -700z"/>
<path d="M14084 5710 c-58 -24 -70 -95 -25 -141 58 -57 146 -21 146 60 0 65
-62 106 -121 81z"/>
<path d="M12322 5315 c-73 -20 -108 -40 -164 -92 l-48 -46 0 67 0 66 -70 0
-70 0 0 -480 0 -480 69 0 70 0 3 313 3 312 28 57 c30 62 74 106 140 140 33 17
60 22 122 22 94 1 140 -18 198 -83 62 -68 67 -104 67 -453 l0 -308 70 0 70 0
0 298 c0 163 -5 324 -10 357 -22 134 -113 252 -226 295 -75 27 -184 34 -252
15z"/>
<path d="M14862 5315 c-73 -20 -108 -40 -164 -92 l-48 -46 0 67 0 66 -70 0
-70 0 0 -480 0 -480 69 0 70 0 3 313 3 312 28 57 c30 62 74 106 140 140 33 17
60 22 122 22 94 1 140 -18 198 -83 62 -68 67 -104 67 -453 l0 -308 70 0 70 0
0 298 c0 163 -5 324 -10 357 -22 134 -113 252 -226 295 -75 27 -184 34 -252
15z"/>
<path d="M15980 5319 c-74 -14 -168 -67 -229 -128 -198 -198 -200 -518 -4
-717 184 -187 466 -189 676 -4 26 23 47 47 47 54 0 6 -18 29 -40 51 l-39 38
-48 -44 c-27 -25 -75 -58 -108 -74 -53 -26 -71 -30 -150 -30 -76 0 -98 4 -145
26 -98 46 -180 151 -196 248 l-7 41 391 0 390 0 6 44 c10 62 -10 171 -44 244
-35 75 -121 168 -190 206 -86 47 -209 65 -310 45z m227 -152 c85 -44 158 -139
178 -234 l7 -33 -327 0 -327 0 7 33 c26 116 133 227 250 258 54 15 159 2 212
-24z"/>
<path d="M17010 5313 c-79 -22 -139 -56 -205 -117 l-49 -46 44 -45 43 -44 44
40 c126 116 316 128 410 27 29 -30 63 -106 63 -140 0 -33 7 -30 -205 -63 -93
-14 -201 -35 -240 -47 -211 -66 -273 -309 -115 -452 86 -78 209 -110 326 -86
73 15 125 41 187 92 l47 39 0 -60 0 -61 70 0 70 0 0 323 c0 363 -5 404 -66
495 -85 129 -260 189 -424 145z m348 -552 c-6 -97 -40 -174 -100 -226 -107
-91 -278 -101 -365 -21 -31 28 -37 40 -40 87 -4 45 -1 60 19 89 38 56 87 76
283 114 99 19 186 35 194 35 11 1 13 -15 9 -78z"/>
<path d="M18192 5319 c-67 -13 -144 -52 -190 -96 l-42 -40 0 64 0 63 -70 0
-70 0 0 -480 0 -480 69 0 70 0 3 313 3 312 27 50 c53 101 139 155 256 163 l72
5 0 68 0 69 -42 -1 c-24 -1 -62 -5 -86 -10z"/>
<path d="M13070 5245 l0 -65 279 -2 278 -3 -288 -348 -289 -349 0 -64 0 -64
385 0 385 0 0 65 0 65 -298 2 -299 3 289 348 288 348 0 64 0 65 -365 0 -365 0
0 -65z"/>
<path d="M14050 4830 l0 -480 70 0 70 0 0 480 0 480 -70 0 -70 0 0 -480z"/>
<path d="M2933 4970 c-94 -25 -116 -37 -189 -107 -96 -91 -134 -183 -114 -277
17 -81 71 -132 183 -170 33 -12 63 -28 65 -35 4 -11 -15 -13 -102 -9 l-106 5
0 -28 c0 -16 10 -54 22 -86 13 -32 23 -69 23 -83 0 -19 5 -25 22 -24 14 0 26
-9 33 -25 24 -51 27 -56 41 -56 24 -1 39 -15 39 -37 0 -21 -1 -21 -20 -3 -28
25 -45 8 -29 -28 14 -30 34 -35 43 -11 4 9 11 12 18 7 7 -4 24 -8 37 -8 13 0
28 -8 32 -17 5 -10 13 -26 18 -35 5 -11 20 -18 39 -18 19 0 39 -9 52 -23 15
-16 27 -21 39 -15 9 4 45 8 81 8 54 0 65 3 68 18 4 20 6 21 32 5 15 -10 23 -9
39 6 12 11 21 27 21 37 0 23 33 41 63 34 27 -7 60 23 55 52 -3 15 3 18 38 15
45 -2 68 14 62 45 -5 26 21 42 58 36 26 -4 34 -1 44 17 6 12 9 27 7 35 -7 17
12 35 38 35 27 0 45 18 45 45 0 12 9 30 21 41 49 45 93 120 120 207 40 128 39
143 -18 199 -27 25 -73 62 -103 81 -93 58 -319 155 -402 171 -110 23 -322 21
-415 -4z"/>
<path d="M4218 4253 c7 -3 16 -2 19 1 4 3 -2 6 -13 5 -11 0 -14 -3 -6 -6z"/>
<path d="M2653 4194 c-8 -21 13 -42 28 -27 13 13 5 43 -11 43 -6 0 -13 -7 -17
-16z"/>
<path d="M4518 4193 c7 -3 16 -2 19 1 4 3 -2 6 -13 5 -11 0 -14 -3 -6 -6z"/>
<path d="M3675 4170 c-24 -27 -13 -50 25 -50 25 0 30 4 30 23 0 22 -16 47 -30
47 -4 0 -15 -9 -25 -20z"/>
<path d="M4378 4183 c7 -3 16 -2 19 1 4 3 -2 6 -13 5 -11 0 -14 -3 -6 -6z"/>
<path d="M4378 4163 c6 -2 18 -2 25 0 6 3 1 5 -13 5 -14 0 -19 -2 -12 -5z"/>
<path d="M3873 4153 c9 -2 23 -2 30 0 6 3 -1 5 -18 5 -16 0 -22 -2 -12 -5z"/>
<path d="M11460 3950 l0 -170 30 0 30 0 0 84 c0 47 -4 88 -10 91 -5 3 -10 42
-10 86 0 72 -2 79 -20 79 -19 0 -20 -7 -20 -170z"/>
<path d="M11800 4106 c0 -11 15 -16 58 -18 l57 -3 5 -150 c4 -131 7 -150 22
-153 16 -3 18 10 20 130 l3 133 63 3 63 3 -3 32 -3 32 -142 3 c-121 2 -143 0
-143 -12z"/>
<path d="M12334 4107 c-2 -7 -3 -82 -2 -167 l3 -155 100 0 100 0 3 113 3 112
-86 0 -85 0 0 55 c0 43 -3 55 -15 55 -9 0 -18 -6 -21 -13z m164 -209 l3 -78
-51 0 -50 0 0 73 c0 41 3 77 7 81 4 4 25 6 48 4 l40 -3 3 -77z"/>
<path d="M13517 4113 c-4 -3 -7 -28 -7 -54 l0 -48 -82 -3 -83 -3 0 -110 0
-110 100 0 100 0 3 168 c2 135 0 167 -11 167 -8 0 -17 -3 -20 -7z m-9 -215 l3
-78 -51 0 -50 0 0 73 c0 41 3 77 7 81 4 4 25 6 48 4 l40 -3 3 -77z"/>
<path d="M3592 4098 c-17 -17 -15 -38 5 -38 25 0 103 -31 103 -41 0 -5 10 -9
23 -9 12 0 36 -9 52 -20 33 -22 45 -25 45 -12 0 5 -10 14 -22 20 l-23 11 25 2
c14 1 2 5 -27 9 -29 4 -59 15 -68 23 -8 9 -24 18 -34 22 -10 3 -21 15 -24 25
-6 22 -36 27 -55 8z"/>
<path d="M2733 4084 c-3 -8 1 -23 10 -32 15 -14 17 -14 23 1 8 21 -1 47 -16
47 -6 0 -13 -7 -17 -16z"/>
<path d="M4055 4090 c3 -5 8 -10 11 -10 2 0 4 5 4 10 0 6 -5 10 -11 10 -5 0
-7 -4 -4 -10z"/>
<path d="M2533 4029 c-18 -5 -33 -11 -33 -14 0 -5 71 6 95 16 18 7 17 8 -5 7
-14 0 -40 -4 -57 -9z"/>
<path d="M3476 4021 c-16 -17 -16 -20 0 -35 19 -20 43 -18 57 5 25 40 -24 67
-57 30z"/>
<path d="M3596 4014 c-9 -22 1 -34 29 -34 26 0 39 22 22 39 -16 16 -44 14 -51
-5z"/>
<path d="M10730 3995 c0 -11 18 -15 82 -17 69 -3 83 -6 86 -20 3 -15 -8 -18
-80 -20 l-83 -3 0 -75 0 -75 113 -3 c107 -3 112 -2 112 18 0 11 -7 20 -15 20
-12 0 -15 17 -15 95 l0 95 -100 0 c-81 0 -100 -3 -100 -15z m160 -136 l0 -40
-47 3 c-42 3 -48 6 -51 26 -6 42 4 52 53 52 l45 0 0 -41z"/>
<path d="M10980 3895 l0 -115 35 0 35 0 0 48 c0 26 -7 56 -15 66 -8 11 -15 35
-15 53 l0 33 65 0 64 0 3 -97 c3 -84 6 -98 21 -101 15 -3 17 7 17 112 l0 116
-105 0 -105 0 0 -115z"/>
<path d="M11562 3898 l3 -113 100 0 100 0 3 113 3 112 -106 0 -106 0 3 -112z
m168 60 c-1 -13 -7 -34 -15 -48 -8 -14 -14 -40 -15 -57 0 -33 0 -33 -50 -33
l-50 0 0 80 0 80 65 0 c61 0 65 -1 65 -22z"/>
<path d="M12580 3995 c0 -11 18 -15 82 -17 69 -3 83 -6 86 -20 3 -15 -8 -18
-80 -20 l-83 -3 0 -75 0 -75 113 -3 c107 -3 112 -2 112 18 0 11 -7 20 -15 20
-12 0 -15 17 -15 95 l0 95 -100 0 c-81 0 -100 -3 -100 -15z m160 -136 l0 -40
-47 3 c-42 3 -48 6 -51 26 -6 42 4 52 53 52 l45 0 0 -41z"/>
<path d="M12834 3996 c-3 -7 -4 -35 -2 -62 l3 -49 68 -3 c67 -3 67 -3 67 -32
0 -29 -1 -30 -50 -30 -38 0 -50 4 -50 15 0 8 -9 15 -21 15 -17 0 -20 -5 -17
-32 l3 -33 100 0 100 0 0 65 0 65 -83 3 -83 3 3 27 c3 25 6 27 59 30 50 3 57
1 62 -18 9 -34 41 -21 45 18 l3 32 -101 0 c-76 0 -102 -3 -106 -14z"/>
<path d="M13082 3898 l3 -113 103 -3 102 -3 0 36 c0 28 -4 35 -20 35 -11 0
-20 -7 -20 -15 0 -11 -12 -15 -50 -15 l-50 0 0 35 0 34 68 3 67 3 3 58 3 57
-106 0 -106 0 3 -112z m168 57 c0 -23 -3 -25 -50 -25 -47 0 -50 2 -50 25 0 23
3 25 50 25 47 0 50 -2 50 -25z"/>
<path d="M13804 3996 c-3 -7 -4 -35 -2 -62 l3 -49 68 -3 c67 -3 67 -3 67 -32
0 -29 -1 -30 -50 -30 -38 0 -50 4 -50 15 0 8 -9 15 -21 15 -17 0 -20 -5 -17
-32 l3 -33 100 0 100 0 0 65 0 65 -83 3 -83 3 3 27 c3 25 6 27 59 30 50 3 57
1 62 -18 9 -34 41 -21 45 18 l3 32 -101 0 c-76 0 -102 -3 -106 -14z"/>
<path d="M14052 3898 l3 -113 103 -3 102 -3 0 36 c0 28 -4 35 -20 35 -11 0
-20 -7 -20 -15 0 -11 -12 -15 -50 -15 l-50 0 0 35 0 34 68 3 67 3 3 58 3 57
-106 0 -106 0 3 -112z m168 57 c0 -23 -3 -25 -50 -25 -47 0 -50 2 -50 25 0 23
3 25 50 25 47 0 50 -2 50 -25z"/>
<path d="M14310 3895 l0 -115 35 0 35 0 0 48 c0 26 -7 56 -15 66 -8 11 -15 35
-15 53 l0 33 65 0 64 0 3 -97 c3 -84 6 -98 21 -101 15 -3 17 7 17 112 l0 116
-105 0 -105 0 0 -115z"/>
<path d="M14564 3996 c-3 -7 -4 -35 -2 -62 l3 -49 68 -3 c67 -3 67 -3 67 -32
0 -29 -1 -30 -50 -30 -38 0 -50 4 -50 15 0 8 -9 15 -21 15 -17 0 -20 -5 -17
-32 l3 -33 100 0 100 0 0 65 0 65 -83 3 -83 3 3 27 c3 25 6 27 59 30 50 3 57
1 62 -18 9 -34 41 -21 45 18 l3 32 -101 0 c-76 0 -102 -3 -106 -14z"/>
<path d="M14812 3898 l3 -113 100 0 100 0 3 113 3 112 -106 0 -106 0 3 -112z
m168 60 c-1 -13 -7 -34 -15 -48 -8 -14 -14 -40 -15 -57 0 -33 0 -33 -50 -33
l-50 0 0 80 0 80 65 0 c61 0 65 -1 65 -22z"/>
<path d="M15064 3997 c-2 -7 -3 -58 -2 -113 l3 -99 30 0 c29 0 30 2 33 47 2
31 -3 56 -13 72 -9 14 -15 35 -13 48 2 19 10 24 44 26 35 3 42 0 47 -17 3 -12
12 -21 21 -21 12 0 16 10 16 35 l0 35 -80 0 c-58 0 -82 -4 -86 -13z"/>
<path d="M15484 3997 c-2 -7 -3 -58 -2 -113 l3 -99 100 0 100 0 3 33 c3 27 0
32 -17 32 -12 0 -21 -7 -21 -15 0 -12 -14 -15 -65 -15 l-66 0 3 78 3 77 43 3
c31 2 44 -1 48 -12 4 -10 19 -16 40 -16 31 0 34 3 34 30 l0 30 -100 0 c-74 0
-102 -3 -106 -13z"/>
<path d="M15732 3898 l3 -113 100 0 100 0 3 113 3 112 -106 0 -106 0 3 -112z
m168 60 c-1 -13 -7 -34 -15 -48 -8 -14 -14 -40 -15 -57 0 -33 0 -33 -50 -33
l-50 0 0 80 0 80 65 0 c61 0 65 -1 65 -22z"/>
<path d="M15980 3895 l0 -115 35 0 c35 0 35 0 35 45 0 25 -7 57 -16 70 -8 13
-14 36 -12 52 3 25 7 28 43 28 l40 0 3 -97 c2 -90 4 -98 22 -98 19 0 20 7 20
101 l0 100 38 -3 37 -3 3 -98 c2 -87 5 -98 20 -95 15 3 17 17 17 113 l0 110
-142 3 -143 3 0 -116z"/>
<path d="M16317 4003 c-4 -3 -7 -78 -7 -165 l0 -158 30 0 c29 0 30 1 30 50 l0
49 68 3 67 3 3 113 3 112 -94 0 c-52 0 -97 -3 -100 -7z m158 -103 l0 -75 -62
-3 -63 -3 0 74 c0 40 3 77 7 81 4 4 32 6 63 4 l55 -3 0 -75z"/>
<path d="M16550 3995 c0 -11 18 -15 82 -17 69 -3 83 -6 86 -20 3 -15 -8 -18
-80 -20 l-83 -3 0 -75 0 -75 113 -3 c107 -3 112 -2 112 18 0 11 -7 20 -15 20
-12 0 -15 17 -15 95 l0 95 -100 0 c-81 0 -100 -3 -100 -15z m160 -136 l0 -40
-47 3 c-42 3 -48 6 -51 26 -6 42 4 52 53 52 l45 0 0 -41z"/>
<path d="M16800 3895 l0 -115 35 0 35 0 0 48 c0 26 -7 56 -15 66 -8 11 -15 35
-15 53 l0 33 65 0 64 0 3 -97 c3 -84 6 -98 21 -101 15 -3 17 7 17 112 l0 116
-105 0 -105 0 0 -115z"/>
<path d="M17062 3898 l3 -113 73 -3 72 -3 0 -49 c0 -49 1 -50 30 -50 l30 0 0
165 c0 158 -1 165 -20 165 -19 0 -20 -7 -20 -95 l0 -95 -65 0 -65 0 0 95 c0
89 -1 95 -20 95 -20 0 -21 -5 -18 -112z"/>
<path d="M2580 3978 c-19 -5 -42 -17 -50 -25 -8 -9 -10 -13 -5 -11 6 3 36 11
68 18 31 6 57 16 57 21 0 11 -24 10 -70 -3z"/>
<path d="M3370 3950 c-20 -16 -23 -22 -14 -37 16 -25 45 -29 61 -7 31 42 -5
75 -47 44z"/>
<path d="M3690 3945 c-22 -26 -8 -50 35 -56 22 -3 64 -15 94 -27 79 -31 75
-19 -5 18 -37 16 -64 33 -61 37 9 8 -22 43 -38 43 -7 0 -18 -7 -25 -15z"/>
<path d="M3880 3945 c14 -8 30 -14 35 -14 6 0 -1 6 -15 14 -14 8 -29 14 -35
14 -5 0 1 -6 15 -14z"/>
<path d="M2641 3929 c-51 -10 -96 -21 -100 -25 -9 -10 129 5 150 16 10 6 28
10 41 10 13 0 30 5 38 10 22 15 -18 11 -129 -11z"/>
<path d="M2900 3932 c0 -28 27 -49 43 -33 8 8 9 16 1 29 -16 25 -44 28 -44 4z"/>
<path d="M3460 3930 c-23 -23 -25 -37 -7 -43 24 -8 47 5 47 29 0 32 -16 38
-40 14z"/>
<path d="M2837 3933 c-12 -12 -7 -41 7 -46 19 -8 38 16 30 37 -6 16 -25 21
-37 9z"/>
<path d="M3526 3915 c-9 -24 4 -45 33 -51 14 -4 38 -18 52 -33 14 -14 71 -63
126 -108 67 -55 103 -91 108 -110 10 -42 35 -97 40 -91 3 3 1 18 -5 33 -15 40
-4 43 30 10 17 -16 30 -26 30 -22 0 15 -65 97 -77 97 -7 0 -18 11 -25 25 -6
13 -14 22 -18 20 -8 -5 -122 86 -187 147 -17 17 -29 36 -26 43 2 8 0 23 -7 34
-13 25 -65 29 -74 6z"/>
<path d="M4318 3903 c7 -3 16 -2 19 1 4 3 -2 6 -13 5 -11 0 -14 -3 -6 -6z"/>
<path d="M2597 3877 c-15 -13 -25 -26 -21 -30 7 -7 64 33 64 45 0 13 -14 9
-43 -15z"/>
<path d="M3224 3886 c-18 -14 -18 -16 -1 -33 16 -16 18 -16 33 -1 16 16 13 48
-4 48 -4 0 -17 -6 -28 -14z"/>
<path d="M2994 3875 c-4 -8 -3 -22 0 -31 6 -15 8 -15 26 1 15 14 17 21 9 32
-15 17 -28 17 -35 -2z"/>
<path d="M3103 3873 c-7 -2 -13 -13 -13 -24 0 -23 41 -26 60 -4 21 26 -9 44
-47 28z"/>
<path d="M2928 3858 c-8 -21 2 -38 24 -38 14 0 19 6 16 22 -3 25 -33 36 -40
16z"/>
<path d="M2717 3843 c-13 -12 -7 -41 10 -47 21 -8 48 17 40 38 -6 16 -38 22
-50 9z"/>
<path d="M3307 3843 c-12 -12 -7 -50 8 -63 31 -26 56 9 39 54 -6 16 -35 22
-47 9z"/>
<path d="M3384 3835 c-3 -8 1 -34 9 -57 8 -24 20 -79 27 -123 6 -44 14 -92 17
-107 5 -24 2 -28 -17 -28 -12 0 -35 11 -51 24 -16 14 -68 37 -117 52 -73 23
-110 28 -237 32 -82 2 -157 8 -166 13 -49 25 -93 -79 -80 -186 7 -58 12 -72
37 -91 81 -64 94 -77 94 -95 0 -30 34 -42 79 -28 37 11 41 10 79 -21 25 -20
47 -30 57 -26 9 3 27 -1 39 -10 15 -9 33 -13 50 -8 32 8 56 -10 56 -41 0 -38
23 -48 55 -24 26 21 28 21 55 6 38 -23 49 -21 60 8 5 14 16 25 24 25 17 0 46
-48 47 -77 0 -12 2 -14 6 -4 31 79 190 91 213 17 l10 -31 -3 33 c-4 39 2 40
42 6 20 -16 39 -24 51 -21 11 3 54 -4 96 -16 60 -16 80 -18 95 -9 15 9 26 8
53 -5 46 -22 98 -9 106 27 5 21 13 25 48 28 29 2 42 8 42 18 0 8 16 22 35 30
30 12 57 13 163 5 120 -9 128 -9 155 11 21 14 32 17 40 9 17 -17 25 -13 42 20
16 30 18 30 67 24 50 -7 51 -7 88 34 29 32 45 41 71 42 48 0 140 31 152 50 17
27 1 49 -35 49 -50 0 -159 -28 -197 -51 -31 -19 -49 -20 -215 -18 l-181 2 -95
-43 c-70 -33 -107 -44 -140 -44 -55 1 -132 24 -157 47 -11 9 -34 20 -51 23
-18 4 -35 11 -38 15 -3 5 -10 7 -15 3 -5 -3 -43 13 -85 35 -42 23 -88 41 -102
41 -15 1 -42 14 -60 29 -30 26 -36 40 -54 127 -11 55 -22 109 -25 121 -3 15 1
25 16 32 51 28 -7 94 -60 68 -34 -18 -38 -60 -5 -75 19 -8 27 -23 36 -69 6
-32 18 -82 27 -111 8 -30 13 -55 11 -58 -8 -8 -73 18 -95 38 -16 15 -26 17
-39 10 -26 -14 -54 -3 -54 22 0 13 -7 64 -16 115 l-16 93 26 27 c31 32 33 56
7 71 -28 15 -71 12 -77 -5z"/>
<path d="M4110 3836 c8 -8 25 -17 38 -21 31 -9 28 13 -4 25 -37 14 -51 13 -34
-4z"/>
<path d="M3034 3805 c-9 -22 22 -53 37 -38 15 15 7 47 -14 51 -9 2 -20 -4 -23
-13z"/>
<path d="M3180 3805 c-10 -12 -10 -18 0 -30 16 -19 39 -19 46 0 6 15 -11 45
-26 45 -4 0 -13 -7 -20 -15z"/>
<path d="M3920 3815 c0 -6 77 -55 86 -55 13 0 -19 30 -49 45 -33 16 -37 17
-37 10z"/>
<path d="M2870 3795 c-10 -12 -10 -18 0 -30 18 -22 60 -20 60 3 0 37 -38 54
-60 27z"/>
<path d="M3750 3795 c-15 -19 2 -45 30 -45 10 0 20 -3 23 -7 2 -5 2 -2 0 6 -2
8 2 18 8 22 19 11 2 39 -24 39 -14 0 -30 -7 -37 -15z"/>
<path d="M4271 3756 c2 -2 14 -9 26 -15 19 -10 22 -9 17 4 -4 8 -15 15 -27 15
-11 0 -18 -2 -16 -4z"/>
<path d="M4045 3720 c10 -11 20 -20 23 -20 3 0 -3 9 -13 20 -10 11 -20 20 -23
20 -3 0 3 -9 13 -20z"/>
<path d="M8972 3460 c0 -14 2 -19 5 -12 2 6 2 18 0 25 -3 6 -5 1 -5 -13z"/>
<path d="M8982 3250 c0 -14 2 -19 5 -12 2 6 2 18 0 25 -3 6 -5 1 -5 -13z"/>
<path d="M8711 2724 c0 -11 3 -14 6 -6 3 7 2 16 -1 19 -3 4 -6 -2 -5 -13z"/>
<path d="M2540 2226 c0 -2 7 -7 16 -10 8 -3 12 -2 9 4 -6 10 -25 14 -25 6z"/>
<path d="M8595 2170 c-3 -6 1 -7 9 -4 18 7 21 14 7 14 -6 0 -13 -4 -16 -10z"/>
<path d="M2611 2154 c0 -11 3 -14 6 -6 3 7 2 16 -1 19 -3 4 -6 -2 -5 -13z"/>
<path d="M2637 2079 c4 -13 8 -18 11 -10 2 7 -1 18 -6 23 -8 8 -9 4 -5 -13z"/>
<path d="M8069 2023 c-13 -16 -12 -17 4 -4 16 13 21 21 13 21 -2 0 -10 -8 -17
-17z"/>
<path d="M7818 2003 c7 -3 16 -2 19 1 4 3 -2 6 -13 5 -11 0 -14 -3 -6 -6z"/>
<path d="M2680 1946 c0 -3 9 -10 20 -16 11 -6 20 -8 20 -6 0 3 -9 10 -20 16
-11 6 -20 8 -20 6z"/>
<path d="M6029 1893 c-13 -16 -12 -17 4 -4 16 13 21 21 13 21 -2 0 -10 -8 -17
-17z"/>
<path d="M2720 1876 c0 -3 9 -10 20 -16 11 -6 20 -8 20 -6 0 3 -9 10 -20 16
-11 6 -20 8 -20 6z"/>
<path d="M5979 1853 c-13 -16 -12 -17 4 -4 16 13 21 21 13 21 -2 0 -10 -8 -17
-17z"/>
<path d="M6040 1860 c-9 -6 -10 -10 -3 -10 6 0 15 5 18 10 8 12 4 12 -15 0z"/>
<path d="M3012 1835 c0 -16 2 -22 5 -12 2 9 2 23 0 30 -3 6 -5 -1 -5 -18z"/>
<path d="M8311 1744 c0 -11 3 -14 6 -6 3 7 2 16 -1 19 -3 4 -6 -2 -5 -13z"/>
<path d="M2920 1726 c0 -2 13 -6 29 -8 17 -2 28 -1 25 4 -5 8 -54 12 -54 4z"/>
<path d="M5724 1694 c-18 -14 -18 -15 4 -4 12 6 22 13 22 15 0 8 -5 6 -26 -11z"/>
<path d="M5446 1647 c3 -10 9 -15 12 -12 3 3 0 11 -7 18 -10 9 -11 8 -5 -6z"/>
<path d="M5600 1630 c-21 -7 -21 -8 -5 -9 11 0 27 4 35 9 18 11 5 11 -30 0z"/>
<path d="M3308 1623 c12 -2 30 -2 40 0 9 3 -1 5 -23 4 -22 0 -30 -2 -17 -4z"/>
<path d="M5508 1623 c7 -3 16 -2 19 1 4 3 -2 6 -13 5 -11 0 -14 -3 -6 -6z"/>
<path d="M7939 1613 c-13 -16 -12 -17 4 -4 16 13 21 21 13 21 -2 0 -10 -8 -17
-17z"/>
<path d="M5323 1613 c9 -2 23 -2 30 0 6 3 -1 5 -18 5 -16 0 -22 -2 -12 -5z"/>
<path d="M5548 1613 c7 -3 16 -2 19 1 4 3 -2 6 -13 5 -11 0 -14 -3 -6 -6z"/>
<path d="M5408 1603 c6 -2 18 -2 25 0 6 3 1 5 -13 5 -14 0 -19 -2 -12 -5z"/>
<path d="M5648 1583 c12 -2 30 -2 40 0 9 3 -1 5 -23 4 -22 0 -30 -2 -17 -4z"/>
<path d="M8139 1573 c-13 -16 -12 -17 4 -4 16 13 21 21 13 21 -2 0 -10 -8 -17
-17z"/>
<path d="M4945 1554 c-22 -13 -35 -24 -30 -24 12 0 75 38 75 45 0 6 2 7 -45
-21z"/>
<path d="M3080 1566 c0 -2 9 -6 20 -9 11 -3 18 -1 14 4 -5 9 -34 13 -34 5z"/>
<path d="M5038 1553 c7 -3 16 -2 19 1 4 3 -2 6 -13 5 -11 0 -14 -3 -6 -6z"/>
<path d="M4768 1543 c6 -2 18 -2 25 0 6 3 1 5 -13 5 -14 0 -19 -2 -12 -5z"/>
<path d="M4998 1543 c7 -3 16 -2 19 1 4 3 -2 6 -13 5 -11 0 -14 -3 -6 -6z"/>
<path d="M3828 1533 c12 -2 30 -2 40 0 9 3 -1 5 -23 4 -22 0 -30 -2 -17 -4z"/>
<path d="M4728 1533 c7 -3 16 -2 19 1 4 3 -2 6 -13 5 -11 0 -14 -3 -6 -6z"/>
<path d="M5550 1490 c-9 -6 -10 -10 -3 -10 6 0 15 5 18 10 8 12 4 12 -15 0z"/>
<path d="M4158 1483 c7 -3 16 -2 19 1 4 3 -2 6 -13 5 -11 0 -14 -3 -6 -6z"/>
<path d="M3868 1473 c7 -3 16 -2 19 1 4 3 -2 6 -13 5 -11 0 -14 -3 -6 -6z"/>
<path d="M4018 1473 c7 -3 16 -2 19 1 4 3 -2 6 -13 5 -11 0 -14 -3 -6 -6z"/>
<path d="M3908 1463 c7 -3 16 -2 19 1 4 3 -2 6 -13 5 -11 0 -14 -3 -6 -6z"/>
<path d="M3978 1463 c7 -3 16 -2 19 1 4 3 -2 6 -13 5 -11 0 -14 -3 -6 -6z"/>
<path d="M4233 1463 c9 -2 25 -2 35 0 9 3 1 5 -18 5 -19 0 -27 -2 -17 -5z"/>
<path d="M4738 1463 c7 -3 16 -2 19 1 4 3 -2 6 -13 5 -11 0 -14 -3 -6 -6z"/>
<path d="M3260 1451 c0 -6 4 -13 10 -16 6 -3 7 1 4 9 -7 18 -14 21 -14 7z"/>
<path d="M3368 1423 c7 -3 16 -2 19 1 4 3 -2 6 -13 5 -11 0 -14 -3 -6 -6z"/>
<path d="M5420 1399 c-7 -11 -10 -23 -7 -25 2 -2 9 7 15 21 14 30 7 33 -8 4z"/>
<path d="M3360 1396 c0 -2 8 -10 18 -17 15 -13 16 -12 3 4 -13 16 -21 21 -21
13z"/>
<path d="M5346 1375 c-9 -26 -7 -32 5 -12 6 10 9 21 6 23 -2 3 -7 -2 -11 -11z"/>
<path d="M7711 1294 c0 -11 3 -14 6 -6 3 7 2 16 -1 19 -3 4 -6 -2 -5 -13z"/>
<path d="M3544 1261 c15 -17 46 -19 46 -4 0 3 -7 3 -15 -1 -8 -3 -15 -1 -15 3
0 5 -8 12 -17 15 -15 6 -15 5 1 -13z"/>
<path d="M5200 1229 c-7 -11 -10 -23 -7 -25 2 -2 9 7 15 21 14 30 7 33 -8 4z"/>
<path d="M3615 1190 c10 -11 20 -20 23 -20 3 0 -3 9 -13 20 -10 11 -20 20 -23
20 -3 0 3 -9 13 -20z"/>
<path d="M4964 1194 c-18 -14 -18 -15 4 -4 12 6 22 13 22 15 0 8 -5 6 -26 -11z"/>
<path d="M3542 1174 c10 -10 20 -15 24 -12 3 4 -5 12 -18 18 -22 12 -22 12 -6
-6z"/>
<path d="M5038 1183 c6 -2 9 -10 6 -15 -4 -7 -2 -8 4 -4 18 11 14 26 -5 25
-11 0 -13 -3 -5 -6z"/>
<path d="M3701 1110 c14 -31 19 -36 19 -24 0 6 -7 19 -16 30 -14 18 -14 18 -3
-6z"/>
<path d="M5066 1113 c-6 -14 -5 -15 5 -6 7 7 10 15 7 18 -3 3 -9 -2 -12 -12z"/>
<path d="M4900 1100 c0 -6 7 -10 15 -10 8 0 15 2 15 4 0 2 -7 6 -15 10 -8 3
-15 1 -15 -4z"/>
<path d="M4948 1103 c7 -3 16 -2 19 1 4 3 -2 6 -13 5 -11 0 -14 -3 -6 -6z"/>
<path d="M4805 1040 c-3 -5 -1 -10 4 -10 6 0 11 5 11 10 0 6 -2 10 -4 10 -3 0
-8 -4 -11 -10z"/>
<path d="M3920 996 c0 -2 8 -10 18 -17 15 -13 16 -12 3 4 -13 16 -21 21 -21
13z"/>
<path d="M3910 934 c0 -6 7 -19 16 -30 14 -18 14 -18 3 6 -14 31 -19 36 -19
24z"/>
<path d="M3785 890 c10 -11 20 -20 23 -20 3 0 -3 9 -13 20 -10 11 -20 20 -23
20 -3 0 3 -9 13 -20z"/>
<path d="M4015 890 c10 -11 20 -20 23 -20 3 0 -3 9 -13 20 -10 11 -20 20 -23
20 -3 0 3 -9 13 -20z"/>
<path d="M4743 865 c-3 -9 -3 -18 -1 -21 3 -3 8 4 11 16 6 23 -1 27 -10 5z"/>
<path d="M4733 790 c0 -25 2 -35 4 -22 2 12 2 32 0 45 -2 12 -4 2 -4 -23z"/>
<path d="M4635 810 c-3 -6 1 -7 9 -4 18 7 21 14 7 14 -6 0 -13 -4 -16 -10z"/>
<path d="M4671 774 c0 -11 3 -14 6 -6 3 7 2 16 -1 19 -3 4 -6 -2 -5 -13z"/>
<path d="M4520 730 c-6 -11 -8 -20 -6 -20 3 0 10 9 16 20 6 11 8 20 6 20 -3 0
-10 -9 -16 -20z"/>
<path d="M4166 697 c3 -10 9 -15 12 -12 3 3 0 11 -7 18 -10 9 -11 8 -5 -6z"/>
<path d="M4680 671 c0 -7 -5 -9 -12 -5 -7 5 -8 3 -3 -5 5 -9 10 -10 18 -2 6 6
8 14 4 18 -4 3 -7 1 -7 -6z"/>
<path d="M4146 647 c3 -10 9 -15 12 -12 3 3 0 11 -7 18 -10 9 -11 8 -5 -6z"/>
<path d="M4161 610 c0 -8 4 -22 9 -30 12 -18 12 -2 0 25 -6 13 -9 15 -9 5z"/>
<path d="M4229 422 c5 -34 6 -35 9 -8 2 16 0 32 -5 37 -5 5 -7 -7 -4 -29z"/>
<path d="M4439 433 c-13 -16 -12 -17 4 -4 16 13 21 21 13 21 -2 0 -10 -8 -17
-17z"/>
<path d="M4220 341 c0 -6 4 -13 10 -16 6 -3 7 1 4 9 -7 18 -14 21 -14 7z"/>
</g>
</svg>
